<svg width="22" height="20" viewBox="0 0 22 20" fill="none" xmlns="http://www.w3.org/2000/svg">
<path d="M13.121 7.98011C12.9335 7.79264 12.6792 7.68732 12.414 7.68732C12.1488 7.68732 11.8945 7.79264 11.707 7.98011L11 8.68611C10.8155 8.87713 10.5948 9.0295 10.3508 9.13431C10.1068 9.23913 9.84437 9.2943 9.57881 9.29661C9.31325 9.29892 9.04989 9.24832 8.8041 9.14775C8.55831 9.04719 8.335 8.89869 8.14722 8.7109C7.95943 8.52312 7.81092 8.29981 7.71036 8.05402C7.6098 7.80823 7.5592 7.54487 7.5615 7.27931C7.56381 7.01375 7.61898 6.75131 7.7238 6.5073C7.82862 6.26329 7.98098 6.0426 8.17201 5.85811L13.802 0.226111C15.1349 -0.077063 16.5295 0.0477089 17.7874 0.582685C19.0454 1.11766 20.1026 2.03561 20.8089 3.206C21.5151 4.3764 21.8344 5.73966 21.7213 7.10194C21.6083 8.46422 21.0686 9.75618 20.179 10.7941L18.071 12.9291L13.121 7.97911V7.98011ZM2.16101 1.96811C3.19577 0.933488 4.54923 0.27809 6.00257 0.107877C7.45591 -0.0623359 8.92418 0.262586 10.17 1.03011L6.75701 4.44411C6.0178 5.18184 5.59644 6.17941 5.58294 7.22367C5.56945 8.26793 5.96489 9.27606 6.68478 10.0326C7.40468 10.7892 8.39192 11.2343 9.43556 11.2727C10.4792 11.311 11.4965 10.9398 12.27 10.2381L12.414 10.1011L16.657 14.3431L12.414 18.5861C12.0389 18.9611 11.5303 19.1717 11 19.1717C10.4697 19.1717 9.96106 18.9611 9.58601 18.5861L2.16001 11.1601C0.941138 9.94114 0.256393 8.28792 0.256393 6.56411C0.256393 4.8403 0.941138 3.18708 2.16001 1.96811H2.16101Z" fill="#9CBBEF"/>
</svg>
