<svg width="21" height="20" viewBox="0 0 21 20" fill="none" xmlns="http://www.w3.org/2000/svg">
<path d="M10.75 0C13.467 0 13.806 0.00999994 14.872 0.0599999C15.937 0.11 16.662 0.277 17.3 0.525C17.96 0.779 18.516 1.123 19.072 1.678C19.5805 2.1779 19.974 2.78259 20.225 3.45C20.472 4.087 20.64 4.813 20.69 5.878C20.737 6.944 20.75 7.283 20.75 10C20.75 12.717 20.74 13.056 20.69 14.122C20.64 15.187 20.472 15.912 20.225 16.55C19.9747 17.2178 19.5811 17.8226 19.072 18.322C18.572 18.8303 17.9673 19.2238 17.3 19.475C16.663 19.722 15.937 19.89 14.872 19.94C13.806 19.987 13.467 20 10.75 20C8.033 20 7.694 19.99 6.628 19.94C5.563 19.89 4.838 19.722 4.2 19.475C3.53233 19.2245 2.92753 18.8309 2.428 18.322C1.91941 17.8222 1.52593 17.2175 1.275 16.55C1.027 15.913 0.86 15.187 0.81 14.122C0.763 13.056 0.75 12.717 0.75 10C0.75 7.283 0.76 6.944 0.81 5.878C0.86 4.812 1.027 4.088 1.275 3.45C1.52524 2.78218 1.9188 2.17732 2.428 1.678C2.92767 1.16923 3.53243 0.775729 4.2 0.525C4.838 0.277 5.562 0.11 6.628 0.0599999C7.694 0.0129999 8.033 0 10.75 0ZM10.75 5C9.42392 5 8.15215 5.52678 7.21447 6.46447C6.27678 7.40215 5.75 8.67392 5.75 10C5.75 11.3261 6.27678 12.5979 7.21447 13.5355C8.15215 14.4732 9.42392 15 10.75 15C12.0761 15 13.3479 14.4732 14.2855 13.5355C15.2232 12.5979 15.75 11.3261 15.75 10C15.75 8.67392 15.2232 7.40215 14.2855 6.46447C13.3479 5.52678 12.0761 5 10.75 5ZM17.25 4.75C17.25 4.41848 17.1183 4.10054 16.8839 3.86612C16.6495 3.6317 16.3315 3.5 16 3.5C15.6685 3.5 15.3505 3.6317 15.1161 3.86612C14.8817 4.10054 14.75 4.41848 14.75 4.75C14.75 5.08152 14.8817 5.39946 15.1161 5.63388C15.3505 5.8683 15.6685 6 16 6C16.3315 6 16.6495 5.8683 16.8839 5.63388C17.1183 5.39946 17.25 5.08152 17.25 4.75ZM10.75 7C11.5456 7 12.3087 7.31607 12.8713 7.87868C13.4339 8.44129 13.75 9.20435 13.75 10C13.75 10.7956 13.4339 11.5587 12.8713 12.1213C12.3087 12.6839 11.5456 13 10.75 13C9.95435 13 9.19129 12.6839 8.62868 12.1213C8.06607 11.5587 7.75 10.7956 7.75 10C7.75 9.20435 8.06607 8.44129 8.62868 7.87868C9.19129 7.31607 9.95435 7 10.75 7Z" fill="currentColor"/>
</svg>
