<svg width="14" height="13" viewBox="0 0 14 13" fill="none" xmlns="http://www.w3.org/2000/svg">
<path d="M0.75001 0.5H12.75C12.9268 0.5 13.0964 0.570238 13.2214 0.695262C13.3464 0.820286 13.4167 0.989856 13.4167 1.16667V11.8333C13.4167 12.0101 13.3464 12.1797 13.2214 12.3047C13.0964 12.4298 12.9268 12.5 12.75 12.5H0.75001C0.573199 12.5 0.40363 12.4298 0.278606 12.3047C0.153581 12.1797 0.0833435 12.0101 0.0833435 11.8333V1.16667C0.0833435 0.989856 0.153581 0.820286 0.278606 0.695262C0.40363 0.570238 0.573199 0.5 0.75001 0.5ZM6.79001 6.28867L2.51534 2.65867L1.65201 3.67467L6.79868 8.04467L11.8527 3.67133L10.9807 2.66267L6.79068 6.28867H6.79001Z" fill="currentColor"/>
</svg>
