<svg width="13" height="13" viewBox="0 0 13 13" fill="none" xmlns="http://www.w3.org/2000/svg">
<path d="M12.75 9.44667V11.804C12.7501 11.9728 12.6861 12.1353 12.5711 12.2588C12.456 12.3823 12.2984 12.4575 12.13 12.4693C11.8387 12.4893 11.6007 12.5 11.4167 12.5C5.52533 12.5 0.75 7.72467 0.75 1.83333C0.75 1.64933 0.76 1.41133 0.780667 1.12C0.792482 0.951629 0.867721 0.794007 0.991202 0.678939C1.11468 0.563871 1.27722 0.499924 1.446 0.5H3.80333C3.88603 0.499916 3.9658 0.530573 4.02715 0.586014C4.08851 0.641455 4.12706 0.717722 4.13533 0.8C4.15067 0.953334 4.16467 1.07533 4.178 1.168C4.31049 2.09262 4.582 2.99189 4.98333 3.83533C5.04667 3.96867 5.00533 4.128 4.88533 4.21333L3.44667 5.24133C4.3263 7.29097 5.9597 8.92436 8.00933 9.804L9.036 8.368C9.07796 8.30933 9.13919 8.26725 9.209 8.2491C9.27881 8.23095 9.35277 8.23787 9.418 8.26867C10.2613 8.66924 11.1604 8.94008 12.0847 9.072C12.1773 9.08533 12.2993 9.1 12.4513 9.11467C12.5335 9.12309 12.6096 9.16171 12.6649 9.22305C12.7202 9.28439 12.7508 9.36408 12.7507 9.44667H12.75Z" fill="currentColor"/>
</svg>
