<svg width="20" height="20" viewBox="0 0 20 20" fill="none" xmlns="http://www.w3.org/2000/svg">
<path d="M4.277 12.514C4.27516 13.035 4.06729 13.5342 3.69878 13.9025C3.33027 14.2708 2.83102 14.4784 2.31 14.48C1.78881 14.4784 1.28941 14.2707 0.920871 13.9021C0.55233 13.5336 0.344585 13.0342 0.343002 12.513C0.343002 11.43 1.227 10.545 2.31 10.545H4.278V12.513L4.277 12.514ZM5.269 12.514C5.269 11.431 6.153 10.546 7.236 10.546C8.319 10.546 9.204 11.431 9.204 12.514V17.441C9.20242 17.9624 8.99454 18.4619 8.62578 18.8305C8.25702 19.1991 7.75737 19.4067 7.236 19.408C6.71481 19.4064 6.21541 19.1987 5.84687 18.8301C5.47833 18.4616 5.27059 17.9622 5.269 17.441V12.514ZM7.236 4.52702C6.71498 4.52517 6.21584 4.31731 5.84752 3.9488C5.47919 3.58028 5.27158 3.08104 5.27 2.56002C5.27 1.47702 6.154 0.593018 7.237 0.593018C8.32 0.593018 9.205 1.47702 9.205 2.56002V4.52802H7.236V4.52702ZM7.236 5.51902C8.319 5.51902 9.204 6.40302 9.204 7.48602C9.20268 8.00756 8.99492 8.50736 8.62613 8.87615C8.25735 9.24493 7.75754 9.4527 7.236 9.45402H2.31C1.78864 9.45243 1.28909 9.24455 0.92052 8.87579C0.55195 8.50704 0.344321 8.00739 0.343002 7.48602C0.343002 6.40302 1.227 5.51902 2.31 5.51902H7.237H7.236ZM15.223 7.48602C15.223 6.40302 16.108 5.51902 17.191 5.51902C18.274 5.51902 19.158 6.40302 19.158 7.48602C19.1567 8.00739 18.9491 8.50704 18.5805 8.87579C18.2119 9.24455 17.7124 9.45243 17.191 9.45402H15.223V7.48602ZM14.231 7.48602C14.2297 8.00739 14.0221 8.50704 13.6535 8.87579C13.2849 9.24455 12.7854 9.45243 12.264 9.45402C11.7425 9.4527 11.2427 9.24493 10.8739 8.87615C10.5051 8.50736 10.2973 8.00756 10.296 7.48602V2.56002C10.296 1.47702 11.181 0.593018 12.264 0.593018C13.347 0.593018 14.231 1.47702 14.231 2.56002V7.48702V7.48602ZM12.264 15.473C13.347 15.473 14.231 16.358 14.231 17.441C14.2294 17.9622 14.0217 18.4616 13.6531 18.8301C13.2846 19.1987 12.7852 19.4064 12.264 19.408C11.7426 19.4067 11.243 19.1991 10.8742 18.8305C10.5055 18.4619 10.2976 17.9624 10.296 17.441V15.473H12.264ZM12.264 14.481C11.7426 14.4797 11.243 14.2721 10.8742 13.9035C10.5055 13.5349 10.2976 13.0354 10.296 12.514C10.296 11.431 11.181 10.546 12.264 10.546H17.191C18.274 10.546 19.158 11.431 19.158 12.514C19.1564 13.0352 18.9487 13.5346 18.5801 13.9031C18.2116 14.2717 17.7122 14.4794 17.191 14.481H12.264Z" fill="currentColor"/>
</svg>
