<svg width="22" height="23" viewBox="0 0 22 23" fill="none" xmlns="http://www.w3.org/2000/svg">
<path d="M20 7.4999C20.5304 7.4999 21.0391 7.71061 21.4142 8.08569C21.7893 8.46076 22 8.96947 22 9.4999V13.4999C22 14.0303 21.7893 14.539 21.4142 14.9141C21.0391 15.2892 20.5304 15.4999 20 15.4999H18.938C18.6942 17.4332 17.7533 19.2111 16.2917 20.4999C14.8302 21.7887 12.9486 22.4999 11 22.4999V20.4999C12.5913 20.4999 14.1174 19.8678 15.2426 18.7425C16.3679 17.6173 17 16.0912 17 14.4999V8.4999C17 6.9086 16.3679 5.38248 15.2426 4.25726C14.1174 3.13204 12.5913 2.4999 11 2.4999C9.4087 2.4999 7.88258 3.13204 6.75736 4.25726C5.63214 5.38248 5 6.9086 5 8.4999V15.4999H2C1.46957 15.4999 0.960859 15.2892 0.585786 14.9141C0.210714 14.539 0 14.0303 0 13.4999V9.4999C0 8.96947 0.210714 8.46076 0.585786 8.08569C0.960859 7.71061 1.46957 7.4999 2 7.4999H3.062C3.30603 5.5668 4.24708 3.78917 5.70857 2.50058C7.17007 1.21198 9.05155 0.500977 11 0.500977C12.9484 0.500977 14.8299 1.21198 16.2914 2.50058C17.7529 3.78917 18.694 5.5668 18.938 7.4999H20ZM6.76 15.2849L7.82 13.5889C8.77308 14.1859 9.87537 14.5017 11 14.4999C12.1246 14.5017 13.2269 14.1859 14.18 13.5889L15.24 15.2849C13.9693 16.081 12.4995 16.5022 11 16.4999C9.50046 16.5022 8.03074 16.081 6.76 15.2849Z" fill="#9CBBEF"/>
</svg>
