<svg width="21" height="18" viewBox="0 0 21 18" fill="none" xmlns="http://www.w3.org/2000/svg">
<path d="M20.912 2.65593C20.1486 2.99362 19.339 3.2154 18.51 3.31393C19.3838 2.79136 20.0377 1.96894 20.35 0.999927C19.53 1.48793 18.631 1.82993 17.694 2.01493C17.0646 1.34151 16.2304 0.89489 15.321 0.744511C14.4116 0.594133 13.4779 0.748418 12.6653 1.18338C11.8526 1.61834 11.2064 2.30961 10.8271 3.14972C10.4478 3.98983 10.3568 4.93171 10.568 5.82893C8.90512 5.74558 7.27834 5.31345 5.79329 4.56059C4.30825 3.80773 2.99813 2.75097 1.94801 1.45893C1.5763 2.09738 1.38096 2.82315 1.38201 3.56193C1.38201 5.01193 2.12001 6.29293 3.24201 7.04293C2.57802 7.02202 1.92864 6.84271 1.34801 6.51993V6.57193C1.34821 7.53763 1.68238 8.47354 2.29385 9.22099C2.90533 9.96843 3.75649 10.4814 4.70301 10.6729C4.08662 10.84 3.44031 10.8646 2.81301 10.7449C3.07987 11.5762 3.60001 12.3031 4.3006 12.824C5.00118 13.3449 5.84714 13.6337 6.72001 13.6499C5.85249 14.3313 4.85918 14.8349 3.79689 15.1321C2.73459 15.4293 1.62413 15.5142 0.529007 15.3819C2.4407 16.6114 4.6661 17.264 6.93901 17.2619C14.632 17.2619 18.839 10.8889 18.839 5.36193C18.839 5.18193 18.834 4.99993 18.826 4.82193C19.6449 4.23009 20.3516 3.49695 20.913 2.65693L20.912 2.65593Z" fill="currentColor"/>
</svg>
